<?xml version="1.0" encoding="utf-8"?>
<!-- Generator: Adobe Illustrator 16.0.0, SVG Export Plug-In . SVG Version: 6.00 Build 0)  -->
<!DOCTYPE svg PUBLIC "-//W3C//DTD SVG 1.1//EN" "http://www.w3.org/Graphics/SVG/1.1/DTD/svg11.dtd">
<svg version="1.1" id="레이어_1" xmlns="http://www.w3.org/2000/svg" xmlns:xlink="http://www.w3.org/1999/xlink" x="0px"
	 y="0px" width="400.666px" height="400.666px" viewBox="0 0 400.666 400.666" enable-background="new 0 0 400.666 400.666"
	 xml:space="preserve">
<g id="Layer_2">
	
		<linearGradient id="SVGID_1_" gradientUnits="userSpaceOnUse" x1="192.2668" y1="26.8916" x2="192.2668" y2="326.4263" gradientTransform="matrix(1 0 0 -1 8.3999 376.8262)">
		<stop  offset="0.4999" style="stop-color:#503723"/>
		<stop  offset="0.5001" style="stop-color:#558EBB"/>
	</linearGradient>
	<path fill="url(#SVGID_1_)" d="M200.667,50.4C117.953,50.4,50.9,117.453,50.9,200.167s67.054,149.768,149.768,149.768
		s149.767-67.054,149.767-149.768S283.38,50.4,200.667,50.4z M200.667,300.5c-55.413,0-100.334-44.921-100.334-100.334
		c0-55.412,44.921-100.333,100.334-100.333c55.412,0,100.333,44.92,100.333,100.333S256.079,300.5,200.667,300.5z"/>
	<line fill="none" stroke="#FFFFFF" stroke-width="4" stroke-miterlimit="10" x1="50.667" y1="200.333" x2="100.333" y2="200.333"/>
	
		<line fill="none" stroke="#FFFFFF" stroke-width="4" stroke-miterlimit="10" x1="300.748" y1="200.333" x2="350.433" y2="200.333"/>
	<line fill="none" stroke="#FFFFFF" stroke-width="4" stroke-miterlimit="10" x1="78.415" y1="131.582" x2="112.082" y2="151.915"/>
	
		<line fill="none" stroke="#FFFFFF" stroke-width="4" stroke-miterlimit="10" x1="288.751" y1="151.915" x2="323.585" y2="131.582"/>
	<line fill="none" stroke="#FFFFFF" stroke-width="4" stroke-miterlimit="10" x1="149.418" y1="113.75" x2="129.418" y2="79.25"/>
	<line fill="none" stroke="#FFFFFF" stroke-width="4" stroke-miterlimit="10" x1="252.084" y1="113.75" x2="272.751" y2="79.25"/>
	<polygon fill="#FFFFFF" points="185.918,60.085 215.251,60.085 200.585,98.918 	"/>
	<polygon fill="#FFFFFF" points="119.084,117.417 112.082,124.251 126.584,131.582 	"/>
	<polygon fill="#FFFFFF" points="274.084,131.582 281.251,117.417 288.751,124.5 	"/>
</g>
</svg>
