<?xml version="1.0" encoding="utf-8"?>
<!-- Generator: Adobe Illustrator 16.0.0, SVG Export Plug-In . SVG Version: 6.00 Build 0)  -->
<!DOCTYPE svg PUBLIC "-//W3C//DTD SVG 1.1//EN" "http://www.w3.org/Graphics/SVG/1.1/DTD/svg11.dtd">
<svg version="1.1" id="레이어_1" xmlns="http://www.w3.org/2000/svg" xmlns:xlink="http://www.w3.org/1999/xlink" x="0px"
	 y="0px" width="400.666px" height="400.666px" viewBox="0 0 400.666 400.666" enable-background="new 0 0 400.666 400.666"
	 xml:space="preserve">
<filter  filterUnits="objectBoundingBox" id="AI_Shadow_1">
	<feGaussianBlur  stdDeviation="5" in="SourceAlpha" result="blur"></feGaussianBlur>
	<feOffset  dx="0" dy="0" in="blur" result="offsetBlurredAlpha"></feOffset>
	<feMerge>
		<feMergeNode  in="offsetBlurredAlpha"></feMergeNode>
		<feMergeNode  in="SourceGraphic"></feMergeNode>
	</feMerge>
</filter>
<g filter="url(#AI_Shadow_1)">
	
		<linearGradient id="SVGID_1_" gradientUnits="userSpaceOnUse" x1="191.9333" y1="100.4932" x2="191.9333" y2="252.4937" gradientTransform="matrix(1 0 0 -1 8.3999 376.8262)">
		<stop  offset="0" style="stop-color:#3D2618"/>
		<stop  offset="0.4999" style="stop-color:#503723"/>
		<stop  offset="0.5001" style="stop-color:#9CCBE5"/>
		<stop  offset="1" style="stop-color:#558EBB"/>
	</linearGradient>
	<path fill="url(#SVGID_1_)" d="M301.332,200.333c0,41.936-33.962,75.938-75.885,76c-0.037,0-50.075,0-50.113,0
		c-41.975,0-76-34.025-76-76c0-41.974,34.025-76,76-76c0.026,0,50.056,0,50.083,0C267.352,124.377,301.332,158.387,301.332,200.333z
		"/>
</g>
<line fill="none" stroke="#FFFFFF" stroke-width="2" stroke-miterlimit="10" x1="99.667" y1="200.457" x2="301.666" y2="200.457"/>
<line fill="none" stroke="#FFFFFF" stroke-width="2" stroke-miterlimit="10" x1="187.979" y1="187.374" x2="212.979" y2="187.374"/>
<line fill="none" stroke="#FFFFFF" stroke-width="2" stroke-miterlimit="10" x1="188.167" y1="213.499" x2="213.167" y2="213.499"/>
<line fill="none" stroke="#FFFFFF" stroke-width="2" stroke-miterlimit="10" x1="188.026" y1="241.42" x2="213.026" y2="241.42"/>
<line fill="none" stroke="#FFFFFF" stroke-width="2" stroke-miterlimit="10" x1="188.167" y1="159.374" x2="213.167" y2="159.374"/>
<line fill="none" stroke="#FFFFFF" stroke-width="2" stroke-miterlimit="10" x1="180.042" y1="173.405" x2="220.042" y2="173.405"/>
<line fill="none" stroke="#FFFFFF" stroke-width="2" stroke-miterlimit="10" x1="180.042" y1="227.499" x2="220.042" y2="227.499"/>
<line fill="none" stroke="#FFFFFF" stroke-width="2" stroke-miterlimit="10" x1="170.042" y1="255.332" x2="230.042" y2="255.332"/>
<line fill="none" stroke="#FFFFFF" stroke-width="2" stroke-miterlimit="10" x1="170.042" y1="145.333" x2="230.042" y2="145.333"/>
<g>
	<path fill="#FFFFFF" d="M166.644,169.224h2.25v7.901h-1.493v-6.488h-1.627L166.644,169.224z"/>
	<path fill="#FFFFFF" d="M172.84,169.025c0.577,0,1.073,0.142,1.491,0.424c0.417,0.283,0.738,0.715,0.967,1.297
		c0.227,0.582,0.341,1.392,0.341,2.43c0,1.049-0.115,1.866-0.347,2.449c-0.23,0.583-0.542,1.012-0.933,1.287
		c-0.39,0.273-0.883,0.411-1.477,0.411s-1.094-0.138-1.499-0.414c-0.405-0.276-0.722-0.695-0.951-1.257
		c-0.229-0.562-0.344-1.362-0.344-2.401c0-1.45,0.224-2.501,0.671-3.153C171.259,169.383,171.952,169.025,172.84,169.025z
		 M172.875,170.454c-0.253,0-0.479,0.082-0.675,0.244c-0.196,0.163-0.348,0.443-0.45,0.841c-0.104,0.398-0.155,0.979-0.155,1.746
		c0,0.999,0.119,1.689,0.356,2.071c0.237,0.381,0.546,0.572,0.924,0.572c0.365,0,0.653-0.181,0.869-0.542
		c0.261-0.437,0.391-1.167,0.391-2.191c0-1.039-0.117-1.754-0.351-2.148C173.55,170.653,173.247,170.454,172.875,170.454z"/>
</g>
<g>
	<path fill="#FFFFFF" d="M155.584,143.883h-1.466c0.04-0.852,0.307-1.523,0.803-2.011c0.496-0.489,1.133-0.733,1.91-0.733
		c0.479,0,0.902,0.101,1.27,0.304c0.367,0.202,0.661,0.494,0.881,0.875c0.222,0.382,0.331,0.769,0.331,1.163
		c0,0.469-0.133,0.974-0.399,1.515c-0.268,0.541-0.755,1.18-1.464,1.917l-0.888,0.935h2.816v1.391h-5.474v-0.72l2.444-2.492
		c0.591-0.598,0.984-1.079,1.179-1.442c0.195-0.363,0.292-0.692,0.292-0.985c0-0.304-0.101-0.556-0.303-0.755
		c-0.203-0.198-0.463-0.298-0.782-0.298c-0.321,0-0.591,0.12-0.806,0.36C155.714,143.147,155.599,143.471,155.584,143.883z"/>
	<path fill="#FFFFFF" d="M162.884,141.138c0.577,0,1.073,0.142,1.491,0.424c0.417,0.283,0.738,0.715,0.967,1.297
		c0.227,0.582,0.341,1.392,0.341,2.43c0,1.049-0.115,1.866-0.347,2.449c-0.23,0.583-0.542,1.012-0.933,1.287
		c-0.39,0.273-0.883,0.411-1.477,0.411s-1.094-0.138-1.499-0.414s-0.722-0.695-0.951-1.257c-0.229-0.562-0.344-1.362-0.344-2.401
		c0-1.45,0.224-2.501,0.671-3.153C161.303,141.496,161.996,141.138,162.884,141.138z M162.918,142.567
		c-0.253,0-0.479,0.082-0.675,0.244c-0.196,0.163-0.348,0.443-0.45,0.841c-0.104,0.398-0.155,0.979-0.155,1.746
		c0,0.999,0.119,1.689,0.356,2.071c0.237,0.381,0.546,0.572,0.924,0.572c0.365,0,0.653-0.181,0.869-0.542
		c0.261-0.437,0.391-1.167,0.391-2.191c0-1.039-0.117-1.754-0.351-2.148C163.593,142.766,163.291,142.567,162.918,142.567z"/>
</g>
<g>
	<path fill="#FFFFFF" d="M234.958,143.784h-1.466c0.039-0.852,0.307-1.523,0.803-2.011c0.496-0.489,1.133-0.733,1.91-0.733
		c0.479,0,0.902,0.101,1.27,0.304c0.367,0.202,0.661,0.494,0.881,0.875c0.222,0.382,0.331,0.769,0.331,1.163
		c0,0.469-0.133,0.974-0.399,1.515c-0.268,0.541-0.756,1.18-1.465,1.917l-0.887,0.935h2.816v1.391h-5.474v-0.72l2.444-2.492
		c0.591-0.598,0.984-1.079,1.179-1.442c0.195-0.363,0.292-0.692,0.292-0.985c0-0.304-0.101-0.556-0.303-0.755
		c-0.203-0.198-0.463-0.298-0.782-0.298c-0.321,0-0.591,0.12-0.806,0.36C235.088,143.048,234.973,143.372,234.958,143.784z"/>
	<path fill="#FFFFFF" d="M242.258,141.039c0.577,0,1.073,0.142,1.491,0.424c0.417,0.283,0.738,0.715,0.967,1.297
		c0.227,0.582,0.341,1.392,0.341,2.43c0,1.049-0.115,1.866-0.347,2.449c-0.23,0.583-0.542,1.012-0.933,1.287
		c-0.39,0.273-0.883,0.411-1.477,0.411s-1.094-0.138-1.499-0.414c-0.405-0.276-0.722-0.695-0.951-1.257
		c-0.229-0.562-0.344-1.362-0.344-2.401c0-1.45,0.224-2.501,0.671-3.153C240.677,141.397,241.37,141.039,242.258,141.039z
		 M242.292,142.468c-0.253,0-0.479,0.082-0.675,0.244c-0.196,0.163-0.348,0.443-0.45,0.841c-0.104,0.398-0.155,0.979-0.155,1.746
		c0,0.999,0.119,1.689,0.356,2.071c0.237,0.381,0.546,0.572,0.924,0.572c0.365,0,0.653-0.181,0.869-0.542
		c0.261-0.437,0.391-1.167,0.391-2.191c0-1.039-0.117-1.754-0.351-2.148C242.967,142.667,242.665,142.468,242.292,142.468z"/>
</g>
<g>
	<path fill="#FFFFFF" d="M224.341,169.224h2.25v7.901h-1.493v-6.488h-1.627L224.341,169.224z"/>
	<path fill="#FFFFFF" d="M230.538,169.025c0.576,0,1.072,0.142,1.49,0.424c0.417,0.283,0.739,0.715,0.968,1.297
		c0.227,0.582,0.341,1.392,0.341,2.43c0,1.049-0.115,1.866-0.348,2.449c-0.229,0.583-0.542,1.012-0.932,1.287
		c-0.39,0.273-0.883,0.411-1.477,0.411c-0.595,0-1.095-0.138-1.499-0.414c-0.405-0.276-0.723-0.695-0.951-1.257
		c-0.229-0.562-0.344-1.362-0.344-2.401c0-1.45,0.224-2.501,0.671-3.153C228.957,169.383,229.649,169.025,230.538,169.025z
		 M230.572,170.454c-0.253,0-0.479,0.082-0.675,0.244c-0.195,0.163-0.347,0.443-0.45,0.841c-0.103,0.398-0.154,0.979-0.154,1.746
		c0,0.999,0.119,1.689,0.355,2.071c0.238,0.381,0.546,0.572,0.924,0.572c0.365,0,0.654-0.181,0.869-0.542
		c0.262-0.437,0.392-1.167,0.392-2.191c0-1.039-0.117-1.754-0.352-2.148C231.247,170.653,230.944,170.454,230.572,170.454z"/>
</g>
<g>
	<path fill="#FFFFFF" d="M166.644,223.224h2.25v7.901h-1.493v-6.488h-1.627L166.644,223.224z"/>
	<path fill="#FFFFFF" d="M172.84,223.024c0.577,0,1.073,0.143,1.491,0.425c0.417,0.282,0.738,0.715,0.967,1.297
		c0.227,0.582,0.341,1.392,0.341,2.43c0,1.05-0.115,1.866-0.347,2.449c-0.23,0.583-0.542,1.012-0.933,1.287
		c-0.39,0.272-0.883,0.411-1.477,0.411s-1.094-0.139-1.499-0.414c-0.405-0.276-0.722-0.695-0.951-1.258
		c-0.229-0.562-0.344-1.361-0.344-2.4c0-1.45,0.224-2.501,0.671-3.152C171.259,223.383,171.952,223.024,172.84,223.024z
		 M172.875,224.454c-0.253,0-0.479,0.082-0.675,0.244c-0.196,0.162-0.348,0.443-0.45,0.841c-0.104,0.397-0.155,0.979-0.155,1.746
		c0,0.999,0.119,1.688,0.356,2.071c0.237,0.381,0.546,0.571,0.924,0.571c0.365,0,0.653-0.181,0.869-0.542
		c0.261-0.437,0.391-1.167,0.391-2.191c0-1.038-0.117-1.754-0.351-2.147C173.55,224.653,173.247,224.454,172.875,224.454z"/>
</g>
<g>
	<path fill="#FFFFFF" d="M224.341,223.224h2.25v7.901h-1.493v-6.488h-1.627L224.341,223.224z"/>
	<path fill="#FFFFFF" d="M230.538,223.024c0.576,0,1.072,0.143,1.49,0.425c0.417,0.282,0.739,0.715,0.968,1.297
		c0.227,0.582,0.341,1.392,0.341,2.43c0,1.05-0.115,1.866-0.348,2.449c-0.229,0.583-0.542,1.012-0.932,1.287
		c-0.39,0.272-0.883,0.411-1.477,0.411c-0.595,0-1.095-0.139-1.499-0.414c-0.405-0.276-0.723-0.695-0.951-1.258
		c-0.229-0.562-0.344-1.361-0.344-2.4c0-1.45,0.224-2.501,0.671-3.152C228.957,223.383,229.649,223.024,230.538,223.024z
		 M230.572,224.454c-0.253,0-0.479,0.082-0.675,0.244c-0.195,0.162-0.347,0.443-0.45,0.841c-0.103,0.397-0.154,0.979-0.154,1.746
		c0,0.999,0.119,1.688,0.355,2.071c0.238,0.381,0.546,0.571,0.924,0.571c0.365,0,0.654-0.181,0.869-0.542
		c0.262-0.437,0.392-1.167,0.392-2.191c0-1.038-0.117-1.754-0.352-2.147C231.247,224.653,230.944,224.454,230.572,224.454z"/>
</g>
<g>
	<path fill="#FFFFFF" d="M155.584,253.883h-1.466c0.04-0.852,0.307-1.522,0.803-2.011c0.496-0.489,1.133-0.732,1.91-0.732
		c0.479,0,0.902,0.101,1.27,0.303c0.367,0.203,0.661,0.494,0.881,0.875c0.222,0.383,0.331,0.77,0.331,1.164
		c0,0.469-0.133,0.974-0.399,1.515c-0.268,0.541-0.755,1.18-1.464,1.917l-0.888,0.936h2.816v1.391h-5.474v-0.721l2.444-2.492
		c0.591-0.598,0.984-1.078,1.179-1.441c0.195-0.363,0.292-0.691,0.292-0.984c0-0.305-0.101-0.557-0.303-0.756
		c-0.203-0.197-0.463-0.298-0.782-0.298c-0.321,0-0.591,0.12-0.806,0.36S155.599,253.472,155.584,253.883z"/>
	<path fill="#FFFFFF" d="M162.884,251.138c0.577,0,1.073,0.143,1.491,0.424c0.417,0.283,0.738,0.715,0.967,1.297
		c0.227,0.582,0.341,1.393,0.341,2.431c0,1.049-0.115,1.866-0.347,2.448c-0.23,0.584-0.542,1.013-0.933,1.287
		c-0.39,0.273-0.883,0.412-1.477,0.412s-1.094-0.139-1.499-0.414c-0.405-0.276-0.722-0.695-0.951-1.258
		c-0.229-0.562-0.344-1.361-0.344-2.4c0-1.45,0.224-2.502,0.671-3.153C161.303,251.496,161.996,251.138,162.884,251.138z
		 M162.918,252.567c-0.253,0-0.479,0.082-0.675,0.244c-0.196,0.162-0.348,0.442-0.45,0.84c-0.104,0.398-0.155,0.979-0.155,1.746
		c0,1,0.119,1.689,0.356,2.071s0.546,0.572,0.924,0.572c0.365,0,0.653-0.181,0.869-0.542c0.261-0.438,0.391-1.167,0.391-2.191
		c0-1.039-0.117-1.754-0.351-2.147C163.593,252.767,163.291,252.567,162.918,252.567z"/>
</g>
<g>
	<path fill="#FFFFFF" d="M234.958,253.784h-1.466c0.039-0.852,0.307-1.523,0.803-2.012s1.133-0.732,1.91-0.732
		c0.479,0,0.902,0.102,1.27,0.304s0.661,0.494,0.881,0.875c0.222,0.382,0.331,0.769,0.331,1.163c0,0.469-0.133,0.975-0.399,1.516
		c-0.268,0.541-0.756,1.18-1.465,1.916l-0.887,0.936h2.816v1.391h-5.474v-0.72l2.444-2.492c0.591-0.598,0.984-1.079,1.179-1.442
		c0.195-0.362,0.292-0.691,0.292-0.984c0-0.305-0.101-0.557-0.303-0.755c-0.203-0.198-0.463-0.298-0.782-0.298
		c-0.321,0-0.591,0.119-0.806,0.359S234.973,253.372,234.958,253.784z"/>
	<path fill="#FFFFFF" d="M242.258,251.039c0.577,0,1.073,0.142,1.491,0.424c0.417,0.283,0.738,0.715,0.967,1.297
		c0.227,0.582,0.341,1.392,0.341,2.431c0,1.049-0.115,1.865-0.347,2.449c-0.23,0.582-0.542,1.012-0.933,1.286
		c-0.39,0.273-0.883,0.411-1.477,0.411s-1.094-0.138-1.499-0.414c-0.405-0.275-0.722-0.695-0.951-1.257
		c-0.229-0.562-0.344-1.362-0.344-2.401c0-1.449,0.224-2.5,0.671-3.152C240.677,251.397,241.37,251.039,242.258,251.039z
		 M242.292,252.468c-0.253,0-0.479,0.082-0.675,0.244c-0.196,0.163-0.348,0.443-0.45,0.841c-0.104,0.398-0.155,0.979-0.155,1.746
		c0,0.999,0.119,1.689,0.356,2.071c0.237,0.381,0.546,0.572,0.924,0.572c0.365,0,0.653-0.182,0.869-0.543
		c0.261-0.437,0.391-1.166,0.391-2.19c0-1.039-0.117-1.754-0.351-2.147C242.967,252.667,242.665,252.468,242.292,252.468z"/>
</g>
</svg>
